<?xml version="1.0" standalone="no"?>
<!DOCTYPE svg PUBLIC "-//W3C//DTD SVG 20010904//EN"
 "http://www.w3.org/TR/2001/REC-SVG-20010904/DTD/svg10.dtd">
<svg version="1.0" xmlns="http://www.w3.org/2000/svg"
 width="1000.000000pt" height="1000.000000pt" viewBox="0 0 1000.000000 1000.000000"
 preserveAspectRatio="xMidYMid meet">
<metadata>
Created by potrace 1.14, written by Peter Selinger 2001-2017
</metadata>
<g transform="translate(0.000000,1000.000000) scale(0.100000,-0.100000)"
fill="#000000" stroke="none">
<path d="M3458 8690 c-215 -26 -437 -98 -593 -194 -213 -132 -354 -262 -485
-449 -60 -86 -144 -252 -173 -343 -92 -287 -87 -204 -87 -1426 l0 -1058 38 0
c20 0 55 5 77 10 22 5 41 8 42 6 2 -2 -6 -25 -18 -51 -18 -40 -21 -61 -16
-124 5 -87 19 -119 79 -181 55 -58 117 -80 221 -80 42 0 77 -1 77 -2 1 -2 7
-57 15 -123 8 -66 19 -158 24 -205 26 -212 79 -340 185 -445 115 -114 185
-151 335 -176 31 -5 288 -9 573 -9 406 0 532 3 590 14 117 23 197 65 287 150
103 96 146 173 176 311 21 99 35 121 88 146 78 35 223 18 263 -32 7 -8 22 -54
34 -104 12 -49 33 -113 45 -142 73 -165 238 -293 421 -328 112 -22 1077 -22
1191 0 189 36 370 184 433 354 28 79 57 231 75 396 23 217 11 195 109 195 72
0 90 4 142 30 107 54 160 148 152 268 -3 37 -13 82 -22 100 l-17 32 38 -5 c21
-3 58 -6 83 -8 l45 -2 3 570 c3 601 -5 800 -37 926 -25 100 -86 251 -122 304
-16 23 -29 46 -29 50 0 16 -78 114 -150 189 -69 72 -179 166 -195 166 -3 0
-25 13 -48 29 -52 35 -142 81 -159 81 -7 0 -31 9 -52 21 -89 47 -191 61 -491
66 l-280 5 -29 76 c-64 172 -116 268 -219 404 -204 271 -490 462 -818 548
-173 45 -266 49 -1024 48 -390 0 -740 -4 -777 -8z m3133 -1763 c332 -99 573
-326 674 -634 41 -122 46 -161 54 -423 7 -206 12 -254 28 -300 21 -57 88 -165
118 -190 16 -13 -100 -16 -966 -20 -944 -5 -986 -6 -1028 -24 -119 -52 -234
-144 -272 -218 -11 -21 -23 -38 -28 -38 -16 0 -52 -123 -58 -197 l-6 -73 -107
0 -107 0 -6 73 c-7 91 -26 143 -81 226 -58 87 -116 141 -198 185 -129 69 -78
66 -1155 66 -622 0 -973 3 -973 10 0 5 13 19 30 32 37 27 114 174 129 246 6
29 11 134 11 232 l0 179 818 4 c873 3 881 4 1093 57 102 25 252 82 323 122
263 150 384 280 517 557 l74 152 530 -4 c460 -3 537 -6 586 -20z m-2520 -1768
c6 -12 11 -54 11 -93 0 -89 -31 -164 -93 -222 -55 -51 -114 -75 -204 -83 l-70
-6 1 -135 c1 -200 26 -271 129 -371 88 -87 202 -124 333 -108 154 18 288 131
333 281 19 65 20 90 17 317 -3 243 -3 247 -30 303 -15 32 -39 74 -54 93 l-27
36 52 -20 c92 -35 164 -101 208 -191 22 -46 26 -68 26 -135 -1 -120 -75 -501
-112 -573 -32 -63 -128 -155 -193 -185 -93 -44 -170 -49 -714 -45 l-499 3 -67
32 c-82 38 -132 78 -180 141 -49 64 -64 112 -88 283 -11 79 -26 180 -32 224
-19 127 -16 242 9 290 50 94 135 160 228 176 22 3 257 7 522 8 l482 1 12 -21z
m1751 -6 c19 -48 22 -148 5 -198 -24 -70 -78 -136 -143 -175 -51 -31 -68 -35
-136 -39 l-78 -3 0 -137 c0 -96 5 -154 16 -192 33 -113 119 -210 232 -261 56
-25 79 -30 147 -30 152 -1 272 60 346 175 64 98 69 129 69 402 0 213 -2 249
-19 298 -20 57 -65 131 -95 156 -9 8 -16 18 -16 23 0 6 153 8 408 6 l407 -3
50 -25 c65 -32 130 -98 157 -158 31 -71 29 -125 -23 -517 -16 -119 -26 -162
-49 -210 -48 -98 -141 -182 -245 -220 -46 -17 -94 -19 -553 -23 -540 -4 -607
0 -701 44 -73 33 -183 146 -205 211 -20 58 -72 301 -93 438 -20 132 -8 209 47
294 79 122 178 167 373 170 87 1 88 1 99 -26z m-3251 2 c79 -42 50 -156 -44
-172 -31 -5 -40 -1 -67 25 -23 24 -30 39 -30 69 1 77 69 115 141 78z m4970
-14 c33 -33 37 -67 14 -111 -31 -60 -90 -67 -141 -16 -45 45 -46 87 -3 127 42
40 90 40 130 0z"/>
<path d="M4962 4233 c-85 -110 -198 -304 -237 -407 -29 -78 -31 -141 -7 -212
22 -63 52 -101 117 -146 93 -66 184 -75 280 -29 68 32 122 85 157 151 18 36
23 61 23 126 0 77 -2 85 -53 188 -29 59 -82 150 -118 202 -35 52 -64 97 -64
99 0 7 -55 65 -61 65 -4 0 -20 -17 -37 -37z"/>
<path d="M4003 3523 c-30 -6 -71 -56 -78 -97 -8 -41 25 -109 87 -180 74 -85
273 -221 360 -247 195 -58 300 -74 434 -66 159 9 212 47 201 143 -7 64 -42 99
-99 98 -24 -1 -91 -2 -149 -3 -134 -3 -212 11 -319 56 -106 44 -201 115 -276
206 -51 61 -105 100 -131 96 -4 -1 -18 -4 -30 -6z"/>
<path d="M3963 1748 c-22 -37 -666 -1321 -800 -1598 l-71 -145 1891 -3 c1040
-1 1893 0 1895 3 3 3 -49 116 -116 252 -66 137 -136 284 -156 328 -19 44 -92
193 -161 330 -70 138 -194 384 -277 548 l-149 297 -1024 0 c-808 0 -1025 -3
-1032 -12z"/>
</g>
</svg>
